<?xml version="1.0" encoding="UTF-8" standalone="no"?>
<svg
   width="12.45mm"
   height="12.435416mm"
   viewBox="0 0 47.05512 46.999998"
   fill="none"
   version="1.1"
   id="svg19"
   xmlns="http://www.w3.org/2000/svg"
   xmlns:svg="http://www.w3.org/2000/svg">
  <defs
     id="defs19" />
  <path
     d="m 23.5335,45.9319 c 12.4066,0 22.4641,-10.0431 22.4641,-22.4318 0,-12.3888 -10.0575,-22.43186 -22.4641,-22.43186 -12.4066,0 -22.46416,10.04306 -22.46416,22.43186 0,12.3887 10.05756,22.4318 22.46416,22.4318 z"
     fill="#ea4a35"
     id="path16" />
  <path
     d="m 13.5364,24.3115 c -0.1041,-0.3241 -0.2081,-0.4321 -0.5203,-0.4321 -0.9226,-0.01 -1.8437,-0.0822 -2.7573,-0.216 0.1018,0.585 0.2408,1.1624 0.4162,1.7283 0.6763,2.5926 2.3411,4.213 4.8383,5.2392 1.2487,0.4861 5.8269,1.0262 6.139,1.0262 -1.3006,-0.6481 -2.6533,-1.2963 -3.9539,-2.1064 -2.0005,-1.1058 -3.4971,-2.9898 -4.162,-5.2392 z m 6.0557,-3.4028 c -0.6243,-0.27 -1.1965,-0.4861 -1.8209,-0.7561 -1.7688,-0.7562 -1.7168,-0.5402 -3.2255,-1.6204 -0.3807,1.0927 -0.5915,2.2413 -0.6243,3.4028 -0.023,2.2182 0.9597,4.3186 2.6533,5.6712 1.8209,1.5664 3.3816,2.2145 5.5667,2.9707 0.3121,0.108 0.5202,0.216 0.9885,0.3781 0,-0.8642 0.104,-4.9691 -0.2081,-6.2654 -0.3642,-1.7824 -1.5608,-3.0247 -3.3297,-3.7809 z m 7.2836,-0.7669 c -1.0769,-4.6073 -3.3296,-6.838 -3.3296,-6.838 0,0 -2.284,2.3118 -3.3401,6.838 1.6985,0.618 2.9642,2.1101 3.3401,3.9374 0.489,-3.0624 3.3296,-3.9374 3.3296,-3.9374 z m 6.654,4.1697 c -0.6649,2.2494 -2.1615,4.1334 -4.162,5.2392 -1.3006,0.8101 -2.6533,1.4583 -3.9539,2.1064 0.3121,0 4.8904,-0.5401 6.139,-1.0262 2.4972,-1.0262 4.162,-2.6466 4.8383,-5.2392 0.1754,-0.5659 0.3144,-1.1433 0.4162,-1.7283 -0.9136,0.1338 -1.8347,0.206 -2.7573,0.216 -0.3122,0 -0.4162,0.108 -0.5203,0.4321 z m -6.0349,-3.4028 c -1.7689,0.7562 -2.9655,1.9985 -3.3296,3.7809 -0.3122,1.2963 -0.2081,5.4012 -0.2081,6.2654 0.4682,-0.1621 0.6763,-0.2701 0.9884,-0.3781 2.1851,-0.7562 3.7459,-1.4043 5.5668,-2.9707 1.6936,-1.3526 2.6762,-3.453 2.6533,-5.6712 -0.0329,-1.1615 -0.2436,-2.3101 -0.6244,-3.4028 -1.5087,1.0802 -1.4567,0.8642 -3.2255,1.6204 -0.6243,0.27 -1.1966,0.4861 -1.8209,0.7561 z"
     fill="#ffffff"
     id="path17" />
  <path
     d="m 23.5335,45.9319 c 12.4066,0 22.4641,-10.0431 22.4641,-22.4318 0,-12.3888 -10.0575,-22.43186 -22.4641,-22.43186 -12.4066,0 -22.46416,10.04306 -22.46416,22.43186 0,12.3887 10.05756,22.4318 22.46416,22.4318 z"
     fill="#ea4a35"
     id="path18" />
  <path
     d="m 13.5364,24.3115 c -0.1041,-0.3241 -0.2081,-0.4321 -0.5203,-0.4321 -0.9226,-0.01 -1.8437,-0.0822 -2.7573,-0.216 0.1018,0.585 0.2408,1.1624 0.4162,1.7283 0.6763,2.5926 2.3411,4.213 4.8383,5.2392 1.2487,0.4861 5.8269,1.0262 6.139,1.0262 -1.3006,-0.6481 -2.6533,-1.2963 -3.9539,-2.1064 -2.0005,-1.1058 -3.4971,-2.9898 -4.162,-5.2392 z m 6.0557,-3.4028 c -0.6243,-0.27 -1.1965,-0.4861 -1.8209,-0.7561 -1.7688,-0.7562 -1.7168,-0.5402 -3.2255,-1.6204 -0.3807,1.0927 -0.5915,2.2413 -0.6243,3.4028 -0.023,2.2182 0.9597,4.3186 2.6533,5.6712 1.8209,1.5664 3.3816,2.2145 5.5667,2.9707 0.3121,0.108 0.5202,0.216 0.9885,0.3781 0,-0.8642 0.104,-4.9691 -0.2081,-6.2654 -0.3642,-1.7824 -1.5608,-3.0247 -3.3297,-3.7809 z m 7.2836,-0.7669 c -1.0769,-4.6073 -3.3296,-6.838 -3.3296,-6.838 0,0 -2.284,2.3118 -3.3401,6.838 1.6985,0.618 2.9642,2.1101 3.3401,3.9374 0.489,-3.0624 3.3296,-3.9374 3.3296,-3.9374 z m 6.654,4.1697 c -0.6649,2.2494 -2.1615,4.1334 -4.162,5.2392 -1.3006,0.8101 -2.6533,1.4583 -3.9539,2.1064 0.3121,0 4.8904,-0.5401 6.139,-1.0262 2.4972,-1.0262 4.162,-2.6466 4.8383,-5.2392 0.1754,-0.5659 0.3144,-1.1433 0.4162,-1.7283 -0.9136,0.1338 -1.8347,0.206 -2.7573,0.216 -0.3122,0 -0.4162,0.108 -0.5203,0.4321 z m -6.0349,-3.4028 c -1.7689,0.7562 -2.9655,1.9985 -3.3296,3.7809 -0.3122,1.2963 -0.2081,5.4012 -0.2081,6.2654 0.4682,-0.1621 0.6763,-0.2701 0.9884,-0.3781 2.1851,-0.7562 3.7459,-1.4043 5.5668,-2.9707 1.6936,-1.3526 2.6762,-3.453 2.6533,-5.6712 -0.0329,-1.1615 -0.2436,-2.3101 -0.6244,-3.4028 -1.5087,1.0802 -1.4567,0.8642 -3.2255,1.6204 -0.6243,0.27 -1.1966,0.4861 -1.8209,0.7561 z"
     fill="#ffffff"
     id="path19" />
</svg>
