<svg width="136" height="87" viewBox="0 0 136 87" fill="none" xmlns="http://www.w3.org/2000/svg">
<path d="M60.7041 23.7931C71.0411 20.0272 82.4358 24.6488 87.2258 34.532C87.4825 35.0724 88.1341 35.2912 88.6642 35.0324C89.1982 34.7736 89.4212 34.128 89.1603 33.594C83.891 22.7122 71.3374 17.6324 59.9681 21.7704C48.5923 25.9084 42.2443 37.869 45.2049 49.5914C45.3268 50.0793 45.7665 50.4053 46.2479 50.4053C46.3341 50.4053 46.4223 50.395 46.5106 50.3717C47.0868 50.2266 47.4378 49.6422 47.2909 49.066C44.6038 38.4176 50.3692 27.553 60.7041 23.7931Z" fill="black"/>
<path d="M91.3472 46.3741C93.7376 45.3883 96.0545 44.4022 98.3257 43.4177C98.5027 56.2215 90.547 68.0128 78.4009 72.432C67.864 76.2738 56.1058 74.009 47.7264 66.5194C47.2807 66.124 46.6016 66.1598 46.2063 66.6055C45.8109 67.0491 45.8488 67.7282 46.2924 68.1257C52.3735 73.559 60.1176 76.4249 67.9949 76.4232C71.7359 76.4232 75.5039 75.7777 79.1416 74.4552C92.435 69.6174 101.087 56.5359 100.484 42.4708C106.979 39.6087 112.936 36.7777 118.055 34.0828C137.467 23.8572 136.188 20.3518 135.772 19.2037C135.087 17.3175 132.341 16.5837 127.244 16.9011C126.646 16.9369 126.196 17.448 126.23 18.0406C126.268 18.6336 126.751 19.0793 127.369 19.05C133.223 18.6947 133.732 19.8846 133.745 19.9376C133.757 19.9668 134.598 22.9361 117.049 32.1755C105.11 38.4645 88.7422 45.4921 70.9551 51.9664C50.2284 59.509 30.5995 65.2029 17.0981 67.5895C16.5115 67.6924 16.1223 68.2518 16.2256 68.8366C16.3182 69.3581 16.7725 69.7259 17.2833 69.7259C17.3461 69.7259 17.4094 69.7216 17.4723 69.7091C21.8205 68.9413 26.8477 67.801 32.2833 66.4031C40.1614 78.9153 53.829 86.1376 68.0496 86.1376C72.8628 86.1376 77.7411 85.3133 82.4678 83.5934C99.0375 77.5605 110.219 61.6704 110.295 44.0473C110.3 43.4522 109.816 42.9686 109.223 42.9664C108.63 42.9664 108.146 43.4457 108.142 44.0387C108.071 60.7617 97.4562 75.8444 81.7275 81.5702C64.2079 87.9463 44.594 81.3191 34.4701 65.8433C39.863 64.4114 45.6796 62.6979 51.749 60.7738L54.1137 60.0184C59.8119 58.1779 65.6936 56.1715 71.6911 53.9886C77.6761 51.8105 83.4781 49.5673 89.0329 47.3116L91.3472 46.3741Z" fill="#EA4A35"/>
<path d="M8.73154 70.8298C9.32453 70.794 9.7767 70.285 9.74096 69.6903C9.70522 69.0995 9.24056 68.6034 8.60149 68.6809C2.76633 69.0194 2.28272 67.8398 2.26593 67.7916C2.25559 67.7645 1.45633 64.9447 17.6957 56.2246C23.558 53.0788 27.4144 46.962 27.7636 40.263C28.3691 28.6792 33.4347 13.2891 54.136 5.75502C74.3769 -1.6046 88.3473 7.01679 96.5018 15.5473C101.031 20.2869 107.823 22.4001 114.224 21.05C115.733 20.7327 117.18 20.4506 118.551 20.2047C119.135 20.0996 119.527 19.5402 119.421 18.9558C119.316 18.3693 118.749 17.9822 118.172 18.0855C116.776 18.3357 115.313 18.6217 113.778 18.9433C108.096 20.1293 102.078 18.2642 98.0577 14.0586C91.0177 6.69898 75.8531 -4.44122 53.4 3.73231C30.4422 12.0863 26.1358 30.1361 25.6148 40.1493C25.3034 46.1042 21.8803 51.5354 16.6781 54.3281C-1.39278 64.03 -0.204652 67.2977 0.243213 68.528C0.825868 70.1304 2.87571 70.8978 6.6438 70.8978C7.28933 70.8978 7.98481 70.8737 8.73154 70.8298Z" fill="#EA4A35"/>
<path d="M73.8543 11.8313C68.1936 10.7947 62.3188 11.2908 56.8725 13.2739C40.202 19.3403 36.2216 32.4615 35.8177 42.401C35.5843 48.2173 32.3691 53.3668 27.2196 56.1781C23.8425 58.022 22.8921 58.9832 23.3085 60.1335C23.4937 60.6446 24.2546 60.8737 25.472 60.8737C32.575 60.8737 55.2128 53.0641 69.4653 47.8766C83.7199 42.6891 111.089 31.9968 112.636 28.6641C112.758 28.4074 112.8 27.8652 112.704 27.5978C112.232 26.2964 110.462 26.3783 107.346 26.9902C101.732 28.1004 95.9789 26.1724 91.9877 21.8341C89.0395 18.6211 85.5195 16.0705 81.5288 14.2476C80.9991 14.0038 80.3514 14.2372 80.1029 14.7794C79.8549 15.3199 80.0943 15.9589 80.6369 16.207C84.3628 17.908 87.6473 20.2925 90.4021 23.2888C94.8975 28.1818 101.37 30.3647 107.762 29.1008C108.33 28.9914 108.801 28.9117 109.196 28.8527C104.654 31.5946 90.4482 37.9491 68.7289 45.8535C47.1844 53.6946 32.2843 57.9549 26.9306 58.8209C27.288 58.6043 27.7234 58.3541 28.2492 58.066C34.0697 54.8909 37.703 49.0682 37.97 42.4889C38.3464 33.2073 42.0598 20.9548 57.6076 15.2962C62.6922 13.4457 68.1759 12.9768 73.4663 13.9504C74.03 14.0409 74.6101 13.6666 74.7195 13.084C74.8246 12.4996 74.4392 11.9385 73.8543 11.8313Z" fill="#EA4A35"/>
<path d="M28.9324 12.04C24.1558 16.9489 20.8919 23.2276 19.6763 29.9722C19.4316 31.327 21.5065 31.9084 21.7524 30.5446C22.9056 24.1478 25.9192 18.2235 30.4551 13.5623C31.4219 12.5688 29.9009 11.0444 28.9324 12.04Z" fill="#EA4A35"/>
<path d="M113.766 56.6347C112.434 61.6095 110.349 66.3233 107.571 70.6589C106.821 71.8294 108.684 72.9103 109.43 71.7459C112.301 67.2646 114.466 62.348 115.842 57.2075C116.201 55.8673 114.124 55.2955 113.766 56.6347Z" fill="#EA4A35"/>
<path d="M51.748 60.7743C56.1918 65.0363 62.0429 67.3691 68.0314 67.3691C70.7229 67.3691 73.4376 66.9087 76.049 65.9583C84.4659 62.8956 90.3859 55.2483 91.3462 46.375L89.0319 47.3129C87.7831 54.8689 82.5848 61.288 75.3088 63.9356C68.0396 66.5814 59.9276 65.0049 54.1127 60.0194L51.748 60.7743Z" fill="black"/>
</svg>
