<?xml version="1.0" standalone="no"?>
<!DOCTYPE svg PUBLIC "-//W3C//DTD SVG 20010904//EN"
 "http://www.w3.org/TR/2001/REC-SVG-20010904/DTD/svg10.dtd">
<svg version="1.0" xmlns="http://www.w3.org/2000/svg"
 width="700.000000pt" height="700.000000pt" viewBox="0 0 700.000000 700.000000"
 preserveAspectRatio="xMidYMid meet">
<metadata>
Created by potrace 1.14, written by Peter Selinger 2001-2017
</metadata>
<g transform="translate(0.000000,700.000000) scale(0.100000,-0.100000)"
fill="#000000" stroke="none">
<path d="M2668 6639 c-5 -3 -50 -102 -99 -220 -49 -118 -93 -223 -99 -234 -5
-11 -161 -380 -346 -820 -185 -440 -505 -1200 -711 -1690 -206 -490 -483
-1146 -615 -1460 -131 -314 -245 -583 -253 -600 -7 -16 -68 -160 -135 -320
-134 -320 -164 -391 -190 -450 -67 -154 -131 -316 -127 -322 6 -10 1013 -9
1112 1 64 6 83 8 148 20 236 43 512 197 688 383 136 144 220 288 309 528 29
77 55 142 57 145 6 6 2203 6 2212 0 4 -3 25 -48 45 -100 21 -52 44 -108 52
-125 7 -16 58 -142 114 -280 55 -137 107 -263 114 -280 8 -16 37 -90 66 -162
37 -93 58 -133 69 -134 101 -3 1773 0 1777 4 5 4 -50 142 -111 282 -20 44
-169 398 -470 1115 -146 349 -272 649 -280 665 -7 17 -32 75 -55 130 -39 93
-51 120 -85 200 -8 17 -29 68 -48 115 -19 47 -43 103 -52 125 -21 49 -38 91
-55 130 -79 189 -474 1127 -485 1150 -7 17 -36 86 -65 155 -28 69 -62 149 -76
178 -13 29 -24 54 -24 57 0 3 -101 245 -129 310 -5 11 -16 36 -24 55 -20 46
-241 571 -324 770 -61 147 -160 379 -188 445 -7 17 -18 44 -25 60 -7 17 -27
64 -45 105 l-32 75 -803 0 c-441 0 -806 -3 -812 -6z m1050 -2354 c83 -215 231
-601 330 -860 99 -258 183 -477 186 -485 6 -14 -68 -15 -664 -15 -368 0 -670
0 -670 1 0 3 209 564 239 644 16 41 66 174 111 295 106 284 238 634 250 660 5
11 18 47 30 79 22 63 30 79 35 74 2 -2 71 -179 153 -393z"/>
</g>
</svg>
